<?xml version="1.0" encoding="UTF-8"?>
<svg width="1162px" height="146px" viewBox="0 0 1162 146" version="1.1" xmlns="http://www.w3.org/2000/svg" xmlns:xlink="http://www.w3.org/1999/xlink">
    <title>Headers/header-4@1,5x</title>
    <defs>
        <rect id="path-1" x="0" y="0" width="1162" height="146" rx="13"></rect>
    </defs>
    <g id="Page-1" stroke="none" stroke-width="1" fill="none" fill-rule="evenodd">
        <g id="12.0-Dashboard---student-Copy" transform="translate(-137.000000, -210.000000)">
            <g id="Group-40" transform="translate(137.000000, 210.000000)">
                <mask id="mask-2" fill="white">
                    <use xlink:href="#path-1"></use>
                </mask>
                <use id="Mask" fill="#3D84FF" xlink:href="#path-1"></use>
                <path d="M1333.56657,14.2123894 L1686.07387,-116.308684 C1695.03596,-119.627031 1704.88997,-119.627031 1713.85206,-116.308684 L1740.67367,-106.377581 C1748.99867,-103.295126 1753.2486,-94.0475562 1750.16614,-85.722556 C1748.538,-81.3253108 1745.07092,-77.858234 1740.67367,-76.2300885 L1388.16637,54.2909845 C1379.20428,57.6093324 1369.35027,57.6093324 1360.38818,54.2909845 L1333.56657,44.359882 C1325.24157,41.2774268 1320.99164,32.0298571 1324.0741,23.7048569 C1325.70224,19.3076116 1329.16932,15.8405348 1333.56657,14.2123894 Z" id="Rectangle" fill="#3227A7" mask="url(#mask-2)"></path>
                <path d="M1263.77678,138.893805 L1616.28408,8.37273231 C1625.24617,5.05438443 1635.10018,5.05438443 1644.06227,8.37273231 L1670.88388,18.3038348 C1679.20888,21.38629 1683.45881,30.6338597 1680.37635,38.95886 C1678.74821,43.3561052 1675.28113,46.823182 1670.88388,48.4513274 L1318.37658,178.9724 C1309.41449,182.290748 1299.56049,182.290748 1290.59839,178.9724 L1263.77678,169.041298 C1255.45178,165.958843 1251.20185,156.711273 1254.28431,148.386273 C1255.91245,143.989028 1259.37953,140.521951 1263.77678,138.893805 Z" id="Rectangle-Copy-20" fill="#3227A7" mask="url(#mask-2)"></path>
                <path d="M992.333333,258 L1179,71.3333333 C1191.88664,58.4466892 1212.78002,58.4466892 1225.66667,71.3333333 C1238.55331,84.2199775 1238.55331,105.113356 1225.66667,118 L1039,304.666667 C1026.11336,317.553311 1005.21998,317.553311 992.333333,304.666667 C979.446689,291.780023 979.446689,270.886644 992.333333,258 Z" id="Rectangle-Copy-18" fill="#0552D8" mask="url(#mask-2)"></path>
                <path d="M1072.33333,43 L1259,-143.666667 C1271.88664,-156.553311 1292.78002,-156.553311 1305.66667,-143.666667 C1318.55331,-130.780023 1318.55331,-109.886644 1305.66667,-97 L1119,89.6666667 C1106.11336,102.553311 1085.21998,102.553311 1072.33333,89.6666667 C1059.44669,76.7800225 1059.44669,55.8866442 1072.33333,43 Z" id="Rectangle-Copy-19" fill="#FFC400" mask="url(#mask-2)"></path>
                <path d="M834.333333,139 L1021,-47.6666667 C1033.88664,-60.5533108 1054.78002,-60.5533108 1067.66667,-47.6666667 C1080.55331,-34.7800225 1080.55331,-13.8866442 1067.66667,-1 L881,185.666667 C868.113356,198.553311 847.219977,198.553311 834.333333,185.666667 C821.446689,172.780023 821.446689,151.886644 834.333333,139 Z" id="Rectangle-Copy-22" fill="#0552D8" mask="url(#mask-2)"></path>
                <path d="M818.333333,296 L1005,109.333333 C1017.88664,96.4466892 1038.78002,96.4466892 1051.66667,109.333333 C1064.55331,122.219977 1064.55331,143.113356 1051.66667,156 L865,342.666667 C852.113356,355.553311 831.219977,355.553311 818.333333,342.666667 C805.446689,329.780023 805.446689,308.886644 818.333333,296 Z" id="Rectangle-Copy-21" fill="#1B2F7D" mask="url(#mask-2)"></path>
            </g>
        </g>
    </g>
</svg>